<?xml version="1.0" encoding="UTF-8" standalone="no"?>
<!-- Created with Inkscape (http://www.inkscape.org/) -->

<svg
   xmlns:dc="http://purl.org/dc/elements/1.1/"
   xmlns:cc="http://creativecommons.org/ns#"
   xmlns:rdf="http://www.w3.org/1999/02/22-rdf-syntax-ns#"
   xmlns:svg="http://www.w3.org/2000/svg"
   xmlns="http://www.w3.org/2000/svg"
   xmlns:sodipodi="http://sodipodi.sourceforge.net/DTD/sodipodi-0.dtd"
   xmlns:inkscape="http://www.inkscape.org/namespaces/inkscape"
   width="180mm"
   height="180mm"
   viewBox="0 0 180 180"
   version="1.1"
   id="svg8"
   inkscape:version="0.92.5 (2060ec1f9f, 2020-04-08)"
   sodipodi:docname="fleche.svg">
  <defs
     id="defs2" />
  <sodipodi:namedview
     id="base"
     pagecolor="#ffffff"
     bordercolor="#666666"
     borderopacity="1.0"
     inkscape:pageopacity="0.0"
     inkscape:pageshadow="2"
     inkscape:zoom="0.35"
     inkscape:cx="209.34364"
     inkscape:cy="173.59252"
     inkscape:document-units="mm"
     inkscape:current-layer="layer3"
     showgrid="false"
     inkscape:snap-bbox="false"
     inkscape:window-width="1366"
     inkscape:window-height="703"
     inkscape:window-x="1535"
     inkscape:window-y="0"
     inkscape:window-maximized="1" />
  <metadata
     id="metadata5">
    <rdf:RDF>
      <cc:Work
         rdf:about="">
        <dc:format>image/svg+xml</dc:format>
        <dc:type
           rdf:resource="http://purl.org/dc/dcmitype/StillImage" />
        <dc:title />
      </cc:Work>
    </rdf:RDF>
  </metadata>
  <g
     inkscape:groupmode="layer"
     id="layer3"
     inkscape:label="Calque 3"
     transform="translate(-20,-47)">
    <circle
       style="fill:#000000;fill-opacity:0;stroke:#ffffff;stroke-width:14.82478428;stroke-miterlimit:4;stroke-dasharray:none;stroke-opacity:1"
       id="path828-3"
       cx="110"
       cy="137"
       r="82.587608" />
  </g>
  <g
     inkscape:groupmode="layer"
     id="layer2"
     inkscape:label="Calque 2"
     transform="translate(-20,-47)" />
  <g
     inkscape:label="Calque 1"
     inkscape:groupmode="layer"
     id="layer1"
     transform="translate(-20,-47)">
    <path
       style="fill:#c5e6ff;fill-opacity:0.99541285;stroke:#ffffff;stroke-width:0.12248251;stroke-opacity:1"
       d="m 50.081374,133.94724 c 0.97419,-18.21424 10.01881,-34.847116 24.78145,-45.572626 11.12552,-8.08304 25.02069,-12.11965 38.763906,-11.2611 18.73686,1.1705 35.52306,10.7531 46.13058,26.334166 11.94108,17.5399 13.57193,40.74442 4.20534,59.83549 -2.94065,5.99365 -6.3794,10.86251 -11.01818,15.60043 -2.79976,2.8596 -5.23918,4.95969 -8.20863,7.06682 -12.98514,9.21428 -28.88019,12.84398 -44.73305,10.21497 -16.326876,-2.70762 -30.941846,-12.25374 -40.156536,-26.22923 -6.93078,-10.51159 -10.43649,-23.43201 -9.76488,-35.98892 z m 17.75287,-7.43472 c 0.22316,0.99589 0.81047,2.35224 1.39874,3.23028 0.49656,0.74114 33.961486,34.27179 34.962966,35.03162 1.75376,1.3306 3.52173,1.92188 5.75648,1.92518 2.1917,0.003 3.85671,-0.50897 5.49263,-1.68972 0.41453,-0.29918 8.47665,-8.27881 17.91583,-17.7325 18.67249,-18.70116 17.76648,-17.7275 18.47522,-19.85457 0.6602,-1.98141 0.66072,-3.95394 0.002,-5.93213 -1.00703,-3.0222 -3.51405,-5.30678 -6.6454,-6.05579 -1.50831,-0.36078 -3.58726,-0.28134 -4.98808,0.19062 -2.14709,0.72339 -1.47518,0.10802 -16.44173,15.05818 l -13.74723,13.73217 -13.626326,-13.60367 c -8.78671,-8.77211 -13.87685,-13.76603 -14.33169,-14.06076 -3.39662,-2.20099 -7.65695,-2.06045 -10.85353,0.35803 -1.69145,1.27972 -3.14573,3.65613 -3.48291,5.69135 -0.13328,0.80448 -0.0693,2.89591 0.11346,3.71171 z"
       id="path826"
       inkscape:connector-curvature="0" />
  </g>
</svg>
